<?xml version="1.0" encoding="utf-8"?>
<!-- Generator: Adobe Illustrator 25.0.1, SVG Export Plug-In . SVG Version: 6.00 Build 0)  -->
<svg version="1.1" id="Calque_1" xmlns="http://www.w3.org/2000/svg" xmlns:xlink="http://www.w3.org/1999/xlink" x="0px" y="0px"
	 viewBox="0 0 130 133" style="enable-background:new 0 0 130 133;" xml:space="preserve">
<style type="text/css">
	.st0{filter:url(#Adobe_OpacityMaskFilter);}
	.st1{fill-rule:evenodd;clip-rule:evenodd;fill:#FFFFFF;}
	.st2{mask:url(#mask-2_1_);fill-rule:evenodd;clip-rule:evenodd;fill:url(#Fill-1_1_);}
	.st3{filter:url(#Adobe_OpacityMaskFilter_1_);}
	.st4{mask:url(#mask-5_1_);fill-rule:evenodd;clip-rule:evenodd;fill:url(#Fill-4_1_);}
	.st5{filter:url(#Adobe_OpacityMaskFilter_2_);}
	.st6{mask:url(#mask-8_1_);fill-rule:evenodd;clip-rule:evenodd;fill:url(#Fill-7_1_);}
	.st7{filter:url(#Adobe_OpacityMaskFilter_3_);}
	.st8{mask:url(#mask-11_1_);fill-rule:evenodd;clip-rule:evenodd;fill:url(#Fill-10_1_);}
	.st9{filter:url(#Adobe_OpacityMaskFilter_4_);}
	.st10{mask:url(#mask-14_1_);fill-rule:evenodd;clip-rule:evenodd;fill:url(#Fill-13_1_);}
	.st11{filter:url(#Adobe_OpacityMaskFilter_5_);}
	.st12{mask:url(#mask-17_1_);fill-rule:evenodd;clip-rule:evenodd;fill:#FFFFFF;}
	.st13{filter:url(#Adobe_OpacityMaskFilter_6_);}
	.st14{mask:url(#mask-19_1_);fill-rule:evenodd;clip-rule:evenodd;fill:#FFFFFF;}
	.st15{filter:url(#Adobe_OpacityMaskFilter_7_);}
	.st16{mask:url(#mask-21_1_);fill-rule:evenodd;clip-rule:evenodd;fill:#FFFFFF;}
	.st17{filter:url(#Adobe_OpacityMaskFilter_8_);}
	.st18{mask:url(#mask-23_1_);fill-rule:evenodd;clip-rule:evenodd;fill:#FFFFFF;}
	.st19{filter:url(#Adobe_OpacityMaskFilter_9_);}
	.st20{mask:url(#mask-25_1_);fill-rule:evenodd;clip-rule:evenodd;fill:#FFFFFF;}
	.st21{filter:url(#Adobe_OpacityMaskFilter_10_);}
	.st22{mask:url(#mask-27_1_);fill-rule:evenodd;clip-rule:evenodd;fill:#FFFFFF;}
	.st23{filter:url(#Adobe_OpacityMaskFilter_11_);}
	.st24{mask:url(#mask-29_1_);fill-rule:evenodd;clip-rule:evenodd;fill:#FFFFFF;}
	.st25{filter:url(#Adobe_OpacityMaskFilter_12_);}
	.st26{mask:url(#mask-31_1_);fill-rule:evenodd;clip-rule:evenodd;fill:#FFFFFF;}
</style>
<g id="logo" transform="translate(0.000000, -0.000000)">
	<g id="Group-3">
		<g id="Clip-2">
		</g>
		<defs>
			<filter id="Adobe_OpacityMaskFilter" filterUnits="userSpaceOnUse" x="1.6" y="2.2" width="53" height="38.6">
				<feColorMatrix  type="matrix" values="1 0 0 0 0  0 1 0 0 0  0 0 1 0 0  0 0 0 1 0"/>
			</filter>
		</defs>
		<mask maskUnits="userSpaceOnUse" x="1.6" y="2.2" width="53" height="38.6" id="mask-2_1_">
			<g class="st0">
				<path id="path-1_1_" class="st1" d="M24.3,5.8C13.9,7.8,5.8,15.9,3.8,26.3l0,0C2.9,31.1,2.1,36,1.6,40.8l0,0
					c10.2-1.1,22.9-4.1,33.6-11.4l0,0c8.9-6.1,13.6-16.5,19.4-27.2l0,0C44.4,2.7,34.3,3.9,24.3,5.8"/>
			</g>
		</mask>
		
			<linearGradient id="Fill-1_1_" gradientUnits="userSpaceOnUse" x1="-179.6022" y1="311.881" x2="-180.3525" y2="311.6981" gradientTransform="matrix(53.009 0 0 -38.579 9571.2207 12048.7939)">
			<stop  offset="0" style="stop-color:#121C28"/>
			<stop  offset="1" style="stop-color:#2A2367"/>
		</linearGradient>
		<path id="Fill-1" class="st2" d="M24.3,5.8C13.9,7.8,5.8,15.9,3.8,26.3l0,0C2.9,31.1,2.1,36,1.6,40.8l0,0
			c10.2-1.1,22.9-4.1,33.6-11.4l0,0c8.9-6.1,13.6-16.5,19.4-27.2l0,0C44.4,2.7,34.3,3.9,24.3,5.8"/>
	</g>
	<g id="Group-6">
		<g id="Clip-5">
		</g>
		<defs>
			<filter id="Adobe_OpacityMaskFilter_1_" filterUnits="userSpaceOnUse" x="0" y="2" width="117" height="92">
				<feColorMatrix  type="matrix" values="1 0 0 0 0  0 1 0 0 0  0 0 1 0 0  0 0 0 1 0"/>
			</filter>
		</defs>
		<mask maskUnits="userSpaceOnUse" x="0" y="2" width="117" height="92" id="mask-5_1_">
			<g class="st3">
				<path id="path-4_1_" class="st1" d="M64.2,2c-3.8,0-7.6,0.1-11.4,0.3l0,0C47.2,12.6,42.7,22.7,34,28.5l0,0
					c-10.3,7.1-22.5,10-32.3,11l0,0c-2.3,18.1-2.3,36.3,0,54.4l0,0c9.4-13,21.6-18.7,30.1-19.9l0,0c29.8-4,39.1-24,52.6-45.3l0,0
					c7.4-11.7,20.3-16,32.6-17.1l0,0c-3.4-2.9-7.5-5-12.1-5.9l0,0C91.8,3.3,78.4,2,65,2l0,0H64.2z"/>
			</g>
		</mask>
		
			<linearGradient id="Fill-4_1_" gradientUnits="userSpaceOnUse" x1="-181.6642" y1="314.877" x2="-182.2946" y2="314.4274" gradientTransform="matrix(117.021 0 0 -91.9925 21347.8594 28980.6387)">
			<stop  offset="0" style="stop-color:#28235B"/>
			<stop  offset="1" style="stop-color:#E6007E"/>
		</linearGradient>
		<path id="Fill-4" class="st4" d="M64.2,2c-3.8,0-7.6,0.1-11.4,0.3l0,0C47.2,12.6,42.7,22.7,34,28.5l0,0c-10.3,7.1-22.5,10-32.3,11
			l0,0c-2.3,18.1-2.3,36.3,0,54.4l0,0c9.4-13,21.6-18.7,30.1-19.9l0,0c29.8-4,39.1-24,52.6-45.3l0,0c7.4-11.7,20.3-16,32.6-17.1l0,0
			c-3.4-2.9-7.5-5-12.1-5.9l0,0C91.8,3.3,78.4,2,65,2l0,0H64.2z"/>
	</g>
	<g id="Group-9" transform="translate(0.000000, 8.253968)">
		<g id="Clip-8">
		</g>
		<defs>
			<filter id="Adobe_OpacityMaskFilter_2_" filterUnits="userSpaceOnUse" x="0.7" y="2.5" width="128.5" height="116.6">
				<feColorMatrix  type="matrix" values="1 0 0 0 0  0 1 0 0 0  0 0 1 0 0  0 0 0 1 0"/>
			</filter>
		</defs>
		<mask maskUnits="userSpaceOnUse" x="0.7" y="2.5" width="128.5" height="116.6" id="mask-8_1_">
			<g class="st5">
				<path id="path-7_1_" class="st1" d="M84.5,19.5C71,40.8,64.6,56.3,34.9,60.3l0,0C26,61.5,10.3,62,0.7,75.7l0,0
					c0.6,7.7,1.7,15.4,3.1,23l0,0c2,10.2,9.9,18.3,20.1,20.4l0,0c1.8-15.3,7.6-29,23.8-38.7l0,0c24.1-14.5,33.8-5.6,58.7-12.9l0,0
					c9.6-2.8,17.1-7.7,22.8-12.8l0,0c-0.2-12.3-1.5-24.6-3.8-36.7l0,0c-1.2-6.3-4.7-11.8-9.5-15.5l0,0C104,3.8,91.6,8.1,84.5,19.5"
					/>
			</g>
		</mask>
		
			<linearGradient id="Fill-7_1_" gradientUnits="userSpaceOnUse" x1="-181.6414" y1="306.8771" x2="-182.4754" y2="306.4737" gradientTransform="matrix(128.4916 0 0 -116.5935 23459.1562 35817.2578)">
			<stop  offset="0" style="stop-color:#FF9500"/>
			<stop  offset="1" style="stop-color:#E6007E"/>
		</linearGradient>
		<path id="Fill-7" class="st6" d="M84.5,19.5C71,40.8,64.6,56.3,34.9,60.3l0,0C26,61.5,10.3,62,0.7,75.7l0,0
			c0.6,7.7,1.7,15.4,3.1,23l0,0c2,10.2,9.9,18.3,20.1,20.4l0,0c1.8-15.3,7.6-29,23.8-38.7l0,0c24.1-14.5,33.8-5.6,58.7-12.9l0,0
			c9.6-2.8,17.1-7.7,22.8-12.8l0,0c-0.2-12.3-1.5-24.6-3.8-36.7l0,0c-1.2-6.3-4.7-11.8-9.5-15.5l0,0C104,3.8,91.6,8.1,84.5,19.5"/>
	</g>
	<g id="Group-12" transform="translate(72.222222, 96.984127)">
		<g id="Clip-11">
		</g>
		<defs>
			<filter id="Adobe_OpacityMaskFilter_3_" filterUnits="userSpaceOnUse" x="1.3" y="1" width="53.4" height="33.1">
				<feColorMatrix  type="matrix" values="1 0 0 0 0  0 1 0 0 0  0 0 1 0 0  0 0 0 1 0"/>
			</filter>
		</defs>
		<mask maskUnits="userSpaceOnUse" x="1.3" y="1" width="53.4" height="33.1" id="mask-11_1_">
			<g class="st7">
				<path id="path-10_1_" class="st1" d="M30.2,4C11.1,11,3.8,26.1,1.3,34.1l0,0c10.5-0.4,21-1.6,31.4-3.6l0,0
					c10.4-2,18.5-10.1,20.5-20.5l0,0C53.7,7,54.3,4,54.7,1l0,0c-0.9,0-1.8,0-2.7,0l0,0C44.7,1,36.5,1.7,30.2,4"/>
			</g>
		</mask>
		
			<linearGradient id="Fill-10_1_" gradientUnits="userSpaceOnUse" x1="-251.8235" y1="214.1012" x2="-252.5359" y2="213.9128" gradientTransform="matrix(53.397 0 0 -33.053 13498.7939 7090.1938)">
			<stop  offset="0" style="stop-color:#E6332A"/>
			<stop  offset="1" style="stop-color:#FF645B"/>
		</linearGradient>
		<path id="Fill-10" class="st8" d="M30.2,4C11.1,11,3.8,26.1,1.3,34.1l0,0c10.5-0.4,21-1.6,31.4-3.6l0,0
			c10.4-2,18.5-10.1,20.5-20.5l0,0C53.7,7,54.3,4,54.7,1l0,0c-0.9,0-1.8,0-2.7,0l0,0C44.7,1,36.5,1.7,30.2,4"/>
	</g>
	<g id="Group-15" transform="translate(20.634921, 59.841270)">
		<g id="Clip-14">
		</g>
		<defs>
			<filter id="Adobe_OpacityMaskFilter_4_" filterUnits="userSpaceOnUse" x="1.8" y="2.2" width="106.8" height="69.2">
				<feColorMatrix  type="matrix" values="1 0 0 0 0  0 1 0 0 0  0 0 1 0 0  0 0 0 1 0"/>
			</filter>
		</defs>
		<mask maskUnits="userSpaceOnUse" x="1.8" y="2.2" width="106.8" height="69.2" id="mask-14_1_">
			<g class="st9">
				<path id="path-13_1_" class="st1" d="M85.5,15.1c-25.3,7.3-35.1-1.6-59.6,13.1l0,0C9.6,37.9,3.6,51.7,1.8,67.1l0,0
					c0.6,0.2,1.2,0.3,1.9,0.4l0,0c13.2,2.5,26.5,3.8,39.9,3.8l0,0h0.9c3.7,0,7.4-0.1,11.2-0.3l0,0C58,63.5,64.9,49.2,83,42.6l0,0
					c6.7-2.4,15.5-3,23-2.8l0,0c1.7-10.9,2.5-21.9,2.5-33l0,0c0-1.5,0-3.1,0-4.6l0,0C102.8,7.3,95.2,12.3,85.5,15.1"/>
			</g>
		</mask>
		
			<linearGradient id="Fill-13_1_" gradientUnits="userSpaceOnUse" x1="-202.0871" y1="254.0922" x2="-202.5695" y2="253.8298" gradientTransform="matrix(106.827 0 0 -69.224 21678.2969 17620.709)">
			<stop  offset="0" style="stop-color:#FF9500"/>
			<stop  offset="1" style="stop-color:#FF645B"/>
		</linearGradient>
		<path id="Fill-13" class="st10" d="M85.5,15.1c-25.3,7.3-35.1-1.6-59.6,13.1l0,0C9.6,37.9,3.6,51.7,1.8,67.1l0,0
			c0.6,0.2,1.2,0.3,1.9,0.4l0,0c13.2,2.5,26.5,3.8,39.9,3.8l0,0h0.9c3.7,0,7.4-0.1,11.2-0.3l0,0C58,63.5,64.9,49.2,83,42.6l0,0
			c6.7-2.4,15.5-3,23-2.8l0,0c1.7-10.9,2.5-21.9,2.5-33l0,0c0-1.5,0-3.1,0-4.6l0,0C102.8,7.3,95.2,12.3,85.5,15.1"/>
	</g>
	<g id="Group-40">
		<g id="Group-18">
			<g id="Clip-17">
			</g>
			<defs>
				<filter id="Adobe_OpacityMaskFilter_5_" filterUnits="userSpaceOnUse" x="102.6" y="91.8" width="24.7" height="19.2">
					<feColorMatrix  type="matrix" values="1 0 0 0 0  0 1 0 0 0  0 0 1 0 0  0 0 0 1 0"/>
				</filter>
			</defs>
			<mask maskUnits="userSpaceOnUse" x="102.6" y="91.8" width="24.7" height="19.2" id="mask-17_1_">
				<g class="st11">
					<path id="path-16_1_" class="st1" d="M64.2,2C50.8,2,37.5,3.3,24.3,5.8l0,0C13.9,7.8,5.8,15.9,3.8,26.3l0,0
						c-5.1,26.6-5.1,54,0,80.7l0,0c2,10.4,10.1,18.5,20.5,20.5l0,0c26.6,5.1,54,5.1,80.7,0l0,0c10.4-2,18.5-10.1,20.5-20.5l0,0
						c2.5-13.3,3.8-26.8,3.8-40.3l0,0c0-13.5-1.3-27-3.8-40.3l0,0c-2-10.4-10.1-18.5-20.5-20.5l0,0C91.8,3.3,78.4,2,65,2l0,0"/>
				</g>
			</mask>
			<path id="Fill-16" class="st12" d="M110,91.8c-2.2,0-4.3,0.3-6.3,0.8c-0.8,0.2-1.3,1.1-1.1,1.9c0.2,0.8,1.1,1.3,1.9,1.1
				c1.7-0.4,3.5-0.7,5.5-0.7c6.4,0,13.2,4.6,14.5,12.5c0.5,3.1-0.3,4,1.4,3.6c0.3-0.1,0.6-2.7,0.9-2.9c0.4-0.3,0.6-0.8,0.5-1.3
				C126.3,96.9,117.8,91.8,110,91.8"/>
		</g>
		<g id="Group-21">
			<g id="Clip-20">
			</g>
			<defs>
				<filter id="Adobe_OpacityMaskFilter_6_" filterUnits="userSpaceOnUse" x="88.8" y="95.4" width="11.1" height="36.4">
					<feColorMatrix  type="matrix" values="1 0 0 0 0  0 1 0 0 0  0 0 1 0 0  0 0 0 1 0"/>
				</filter>
			</defs>
			<mask maskUnits="userSpaceOnUse" x="88.8" y="95.4" width="11.1" height="36.4" id="mask-19_1_">
				<g class="st13">
					<path id="path-18_1_" class="st1" d="M64.2,2C50.8,2,37.5,3.3,24.3,5.8l0,0C13.9,7.8,5.8,15.9,3.8,26.3l0,0
						c-5.1,26.6-5.1,54,0,80.7l0,0c2,10.4,10.1,18.5,20.5,20.5l0,0c26.6,5.1,54,5.1,80.7,0l0,0c10.4-2,18.5-10.1,20.5-20.5l0,0
						c2.5-13.3,3.8-26.8,3.8-40.3l0,0c0-13.5-1.3-27-3.8-40.3l0,0c-2-10.4-10.1-18.5-20.5-20.5l0,0C91.8,3.3,78.4,2,65,2l0,0"/>
				</g>
			</mask>
			<path id="Fill-19" class="st14" d="M93,106.5c0.3-0.8,1.8-5,6.3-8.3c0.7-0.5,0.8-1.5,0.3-2.1c-0.5-0.7-1.5-0.8-2.1-0.3
				c-5.1,3.8-6.9,8.5-7.4,9.8c-1.5,4.6-1.7,9-0.5,13.6c1.5,5.9,4.8,9.8,6.8,12.1c0.5,0.6,1.5,0.7,2.2,0.2c0,0,0,0,0,0
				c0.6-0.6,0.7-1.5,0.2-2.1c-1.9-2.3-4.8-5.7-6.2-10.9C91.9,115.9,91.3,111.9,93,106.5"/>
		</g>
		<g id="Group-24">
			<g id="Clip-23">
			</g>
			<defs>
				<filter id="Adobe_OpacityMaskFilter_7_" filterUnits="userSpaceOnUse" x="120.6" y="112.3" width="7.3" height="3.5">
					<feColorMatrix  type="matrix" values="1 0 0 0 0  0 1 0 0 0  0 0 1 0 0  0 0 0 1 0"/>
				</filter>
			</defs>
			<mask maskUnits="userSpaceOnUse" x="120.6" y="112.3" width="7.3" height="3.5" id="mask-21_1_">
				<g class="st15">
					<path id="path-20_1_" class="st1" d="M64.2,2C50.8,2,37.5,3.3,24.3,5.8l0,0C13.9,7.8,5.8,15.9,3.8,26.3l0,0
						c-5.1,26.6-5.1,54,0,80.7l0,0c2,10.4,10.1,18.5,20.5,20.5l0,0c26.6,5.1,54,5.1,80.7,0l0,0c10.4-2,18.5-10.1,20.5-20.5l0,0
						c2.5-13.3,3.8-26.8,3.8-40.3l0,0c0-13.5-1.3-27-3.8-40.3l0,0c-2-10.4-10.1-18.5-20.5-20.5l0,0C91.8,3.3,78.4,2,65,2l0,0"/>
				</g>
			</mask>
			<path id="Fill-22" class="st16" d="M122.8,112.4c-0.7-0.3-1.5-0.1-1.9,0.6c-0.5,0.7-0.2,1.7,0.5,2.1c0.3,0.2,0.8,0.5,5,0.7
				c0.4,0,0.8-0.1,1.1-0.4c0.3-0.3,0.5-0.7,0.5-1.1c0-0.8-0.6-1.6-1.5-1.6C125,112.7,123.2,112.6,122.8,112.4"/>
		</g>
		<g id="Group-27">
			<g id="Clip-26">
			</g>
			<defs>
				<filter id="Adobe_OpacityMaskFilter_8_" filterUnits="userSpaceOnUse" x="94.9" y="97.6" width="27.3" height="17.8">
					<feColorMatrix  type="matrix" values="1 0 0 0 0  0 1 0 0 0  0 0 1 0 0  0 0 0 1 0"/>
				</filter>
			</defs>
			<mask maskUnits="userSpaceOnUse" x="94.9" y="97.6" width="27.3" height="17.8" id="mask-23_1_">
				<g class="st17">
					<path id="path-22_1_" class="st1" d="M64.2,2C50.8,2,37.5,3.3,24.3,5.8l0,0C13.9,7.8,5.8,15.9,3.8,26.3l0,0
						c-5.1,26.6-5.1,54,0,80.7l0,0c2,10.4,10.1,18.5,20.5,20.5l0,0c26.6,5.1,54,5.1,80.7,0l0,0c10.4-2,18.5-10.1,20.5-20.5l0,0
						c2.5-13.3,3.8-26.8,3.8-40.3l0,0c0-13.5-1.3-27-3.8-40.3l0,0c-2-10.4-10.1-18.5-20.5-20.5l0,0C91.8,3.3,78.4,2,65,2l0,0"/>
				</g>
			</mask>
			<path id="Fill-25" class="st18" d="M110.1,97.6c-2,0-5.7-0.1-10.1,3.6c-6,5.1-5,12.1-4.9,12.9c0.1,0.8,0.9,1.4,1.8,1.3
				c0.8-0.1,1.4-0.9,1.3-1.7c-0.1-0.6-0.8-6,3.8-10c0,0,0.1-0.1,0.1-0.1c3.5-3,6.2-2.9,8-2.9c1.8,0,4,0.4,7,3.3
				c1.7,1.6,2.1,3.2,2.3,4.5c0.1,0.8,0.9,1.4,1.7,1.3c0.3,0,0.6-0.2,0.8-0.4c0.4-0.3,0.6-0.8,0.5-1.4c-0.2-1.6-0.8-4-3.2-6.3
				C115.3,98.1,112.3,97.6,110.1,97.6"/>
		</g>
		<g id="Group-30">
			<g id="Clip-29">
			</g>
			<defs>
				<filter id="Adobe_OpacityMaskFilter_9_" filterUnits="userSpaceOnUse" x="96.5" y="117.3" width="11.8" height="15.5">
					<feColorMatrix  type="matrix" values="1 0 0 0 0  0 1 0 0 0  0 0 1 0 0  0 0 0 1 0"/>
				</filter>
			</defs>
			<mask maskUnits="userSpaceOnUse" x="96.5" y="117.3" width="11.8" height="15.5" id="mask-25_1_">
				<g class="st19">
					<path id="path-24_1_" class="st1" d="M64.2,2C50.8,2,37.5,3.3,24.3,5.8l0,0C13.9,7.8,5.8,15.9,3.8,26.3l0,0
						c-5.1,26.6-5.1,54,0,80.7l0,0c2,10.4,10.1,18.5,20.5,20.5l0,0c26.6,5.1,54,5.1,80.7,0l0,0c10.4-2,18.5-10.1,20.5-20.5l0,0
						c2.5-13.3,3.8-26.8,3.8-40.3l0,0c0-13.5-1.3-27-3.8-40.3l0,0c-2-10.4-10.1-18.5-20.5-20.5l0,0C91.8,3.3,78.4,2,65,2l0,0"/>
				</g>
			</mask>
			<path id="Fill-28" class="st20" d="M97.6,117.4c-0.8,0.3-1.2,1.1-1,1.9c2.8,8.3,9.1,13,9.3,13.2c0.6,0.4,1.4,0.4,1.9-0.1
				c0.1-0.1,0.2-0.2,0.2-0.2c0.5-0.7,0.4-1.6-0.3-2.1c-0.1,0-5.7-4.3-8.2-11.7C99.2,117.6,98.4,117.1,97.6,117.4"/>
		</g>
		<g id="Group-33">
			<g id="Clip-32">
			</g>
			<defs>
				<filter id="Adobe_OpacityMaskFilter_10_" filterUnits="userSpaceOnUse" x="101.6" y="104.4" width="24.7" height="27.3">
					<feColorMatrix  type="matrix" values="1 0 0 0 0  0 1 0 0 0  0 0 1 0 0  0 0 0 1 0"/>
				</filter>
			</defs>
			<mask maskUnits="userSpaceOnUse" x="101.6" y="104.4" width="24.7" height="27.3" id="mask-27_1_">
				<g class="st21">
					<path id="path-26_1_" class="st1" d="M64.2,2C50.8,2,37.5,3.3,24.3,5.8l0,0C13.9,7.8,5.8,15.9,3.8,26.3l0,0
						c-5.1,26.6-5.1,54,0,80.7l0,0c2,10.4,10.1,18.5,20.5,20.5l0,0c26.6,5.1,54,5.1,80.7,0l0,0c10.4-2,18.5-10.1,20.5-20.5l0,0
						c2.5-13.3,3.8-26.8,3.8-40.3l0,0c0-13.5-1.3-27-3.8-40.3l0,0c-2-10.4-10.1-18.5-20.5-20.5l0,0C91.8,3.3,78.4,2,65,2l0,0"/>
				</g>
			</mask>
			<path id="Fill-31" class="st22" d="M118,117.3c-0.5-0.4-0.5-1.1-0.4-2.6c0.1-1.6,0.2-3.5-0.8-5.8c-0.8-1.9-2.6-3.5-4.7-4.2
				c-1.5-0.5-4-0.7-6.7,1.1c-2.1,1.4-3.4,3.3-3.8,5.7c-0.8,5.5,3.7,11.5,5.1,13.2c3.2,3.9,6.8,6.6,6.9,6.7c0.6,0.4,1.4,0.4,1.9-0.1
				c0.1-0.1,0.1-0.1,0.2-0.2c0.5-0.7,0.4-1.6-0.3-2.2c0,0-3.4-2.6-6.4-6.2c-2.5-3-4.9-7.4-4.4-10.8c0.2-1.5,1-2.6,2.4-3.6
				c1.4-0.9,2.8-1.1,4.1-0.7c1.2,0.4,2.3,1.3,2.8,2.4c0.7,1.6,0.6,3.1,0.5,4.5c-0.1,1.6-0.2,3.5,1.3,5c1.7,1.6,7.6,2.9,8.8,2.9
				c0.9,0,1.6-0.7,1.6-1.5c0-0.8-0.7-1.6-1.5-1.6C123.6,119.3,118.8,118.1,118,117.3"/>
		</g>
		<g id="Group-36">
			<g id="Clip-35">
			</g>
			<defs>
				<filter id="Adobe_OpacityMaskFilter_11_" filterUnits="userSpaceOnUse" x="112.3" y="121.4" width="10.1" height="6.9">
					<feColorMatrix  type="matrix" values="1 0 0 0 0  0 1 0 0 0  0 0 1 0 0  0 0 0 1 0"/>
				</filter>
			</defs>
			<mask maskUnits="userSpaceOnUse" x="112.3" y="121.4" width="10.1" height="6.9" id="mask-29_1_">
				<g class="st23">
					<path id="path-28_1_" class="st1" d="M64.2,2C50.8,2,37.5,3.3,24.3,5.8l0,0C13.9,7.8,5.8,15.9,3.8,26.3l0,0
						c-5.1,26.6-5.1,54,0,80.7l0,0c2,10.4,10.1,18.5,20.5,20.5l0,0c26.6,5.1,54,5.1,80.7,0l0,0c10.4-2,18.5-10.1,20.5-20.5l0,0
						c2.5-13.3,3.8-26.8,3.8-40.3l0,0c0-13.5-1.3-27-3.8-40.3l0,0c-2-10.4-10.1-18.5-20.5-20.5l0,0C91.8,3.3,78.4,2,65,2l0,0"/>
				</g>
			</mask>
			<path id="Fill-34" class="st24" d="M114.9,121.9c-0.6-0.6-1.6-0.6-2.2,0c-0.6,0.6-0.6,1.6,0,2.2c1.8,1.8,4,3,7.7,4.3
				c0.5,0.2,1.1,0,1.5-0.3c0.2-0.2,0.4-0.4,0.4-0.7c0.3-0.8-0.2-1.7-1-1.9C118.1,124.3,116.4,123.4,114.9,121.9"/>
		</g>
		<g id="Group-39">
			<g id="Clip-38">
			</g>
			<defs>
				<filter id="Adobe_OpacityMaskFilter_12_" filterUnits="userSpaceOnUse" x="108" y="111" width="4.3" height="9.3">
					<feColorMatrix  type="matrix" values="1 0 0 0 0  0 1 0 0 0  0 0 1 0 0  0 0 0 1 0"/>
				</filter>
			</defs>
			<mask maskUnits="userSpaceOnUse" x="108" y="111" width="4.3" height="9.3" id="mask-31_1_">
				<g class="st25">
					<path id="path-30_1_" class="st1" d="M64.2,2C50.8,2,37.5,3.3,24.3,5.8l0,0C13.9,7.8,5.8,15.9,3.8,26.3l0,0
						c-5.1,26.6-5.1,54,0,80.7l0,0c2,10.4,10.1,18.5,20.5,20.5l0,0c26.6,5.1,54,5.1,80.7,0l0,0c10.4-2,18.5-10.1,20.5-20.5l0,0
						c2.5-13.3,3.8-26.8,3.8-40.3l0,0c0-13.5-1.3-27-3.8-40.3l0,0c-2-10.4-10.1-18.5-20.5-20.5l0,0C91.8,3.3,78.4,2,65,2l0,0"/>
				</g>
			</mask>
			<path id="Fill-37" class="st26" d="M111.7,119.8c0.5-0.5,0.7-1.2,0.3-1.9c-1.5-2.7-0.9-4.9-0.9-5c0.2-0.8-0.2-1.7-1-1.9
				c-0.8-0.2-1.7,0.2-1.9,1c0,0.1-1,3.5,1.1,7.4c0.4,0.7,1.3,1,2.1,0.6C111.5,120,111.6,119.9,111.7,119.8"/>
		</g>
	</g>
	<g id="Group-49" transform="translate(27.021635, 24.285857)">
		<path id="Fill-41" class="st1" d="M12.8,5.6H5.6v7.3h7.2c1.3,0,2.3-0.3,3.1-1c0.8-0.7,1.1-1.6,1.1-2.6c0-1.1-0.4-2-1.1-2.6
			C15.1,5.9,14.1,5.6,12.8,5.6L12.8,5.6z M0,27.9V0.8h13.3c1.4,0,2.6,0.2,3.8,0.6c1.2,0.4,2.1,1,3,1.7c0.8,0.7,1.5,1.6,1.9,2.7
			c0.5,1,0.7,2.2,0.7,3.4c0,1.7-0.5,3.2-1.5,4.6c-1,1.3-2.3,2.3-3.9,3l6,11.2h-6.3l-5.3-10.4H5.6v10.4H0z"/>
		<path id="Fill-43" class="st1" d="M26,27.9h5.3V9.2H26V27.9z M28.7,6.8c-0.8,0-1.5-0.3-2.1-0.9c-0.6-0.6-0.9-1.3-0.9-2.1
			c0-0.8,0.3-1.5,0.9-2.1c0.6-0.6,1.3-0.9,2.1-0.9c0.8,0,1.5,0.3,2.1,0.9c0.6,0.6,0.9,1.3,0.9,2.1c0,0.8-0.3,1.5-0.9,2.1
			C30.2,6.5,29.5,6.8,28.7,6.8L28.7,6.8z"/>
		<path id="Fill-45" class="st1" d="M45.4,23.7c0.9,0,1.8-0.2,2.5-0.5c0.8-0.4,1.5-0.9,2.3-1.7l3.2,3.3c-1,1.1-2.3,2-3.7,2.7
			c-1.4,0.6-3,1-4.5,1c-1.5,0-2.9-0.3-4.2-0.8c-1.3-0.5-2.4-1.3-3.4-2.2c-0.9-0.9-1.7-2-2.2-3.3c-0.5-1.3-0.8-2.7-0.8-4.1
			c0-1.5,0.3-2.9,0.8-4.1c0.5-1.3,1.3-2.4,2.2-3.3c0.9-0.9,2.1-1.7,3.4-2.2c1.3-0.5,2.7-0.8,4.2-0.8c1.6,0,3.1,0.3,4.6,1
			c1.5,0.6,2.7,1.5,3.8,2.7l-3.3,3.5c-0.7-0.8-1.5-1.4-2.3-1.8c-0.8-0.4-1.7-0.6-2.7-0.6c-1.5,0-2.8,0.6-3.9,1.7
			c-1,1.1-1.6,2.5-1.6,4.2c0,1.7,0.5,3,1.6,4.2C42.6,23.1,43.9,23.7,45.4,23.7"/>
		<path id="Fill-46" class="st1" d="M56.2,27.9v-26l5.3-1.2v8.5c0.8-0.6,1.6-1.1,2.6-1.5c0.9-0.3,2-0.5,3.1-0.5
			c2.3,0,4.2,0.8,5.7,2.3c1.5,1.5,2.3,3.4,2.3,5.8v12.6h-5.3V16.1c0-1.3-0.4-2.3-1.1-3.1c-0.8-0.8-1.8-1.2-3-1.2
			c-0.9,0-1.7,0.2-2.4,0.5c-0.7,0.3-1.3,0.9-1.8,1.5v14H56.2z"/>
		<polygon id="Fill-47" class="st1" points="0,83.9 0,38.3 10,35.8 10,83.9 		"/>
		<path id="Fill-48" class="st1" d="M36.4,44.7H28V75h8.5c2.1,0,4.1-0.4,5.9-1.2c1.9-0.8,3.5-1.8,4.8-3.2c1.4-1.4,2.5-2.9,3.2-4.8
			c0.8-1.8,1.2-3.8,1.2-5.9c0-2.2-0.4-4.2-1.2-6c-0.8-1.9-1.9-3.5-3.2-4.9c-1.4-1.4-3-2.4-4.8-3.2C40.5,45.1,38.5,44.7,36.4,44.7
			L36.4,44.7z M18,83.9V35.8h18.5c3.6,0,6.9,0.6,10,1.9c3.1,1.2,5.8,2.9,8.1,5.1c2.3,2.2,4.1,4.7,5.4,7.7c1.3,3,2,6.2,2,9.6
			c0,3.3-0.7,6.5-2,9.4c-1.3,2.9-3.1,5.5-5.4,7.6c-2.3,2.1-5,3.8-8.1,5c-3.1,1.2-6.5,1.9-10,1.9H18z"/>
	</g>
</g>
</svg>
